<svg width="15" height="14" viewBox="0 0 15 14" fill="none" xmlns="http://www.w3.org/2000/svg">
<g clip-path="url(#clip0_179_40047)">
<path d="M7.33392 2.33332H3.25059C2.94117 2.33332 2.64442 2.45624 2.42563 2.67503C2.20684 2.89382 2.08392 3.19057 2.08392 3.49999V11.6667C2.08392 11.9761 2.20684 12.2728 2.42563 12.4916C2.64442 12.7104 2.94117 12.8333 3.25059 12.8333H11.4173C11.7267 12.8333 12.0234 12.7104 12.2422 12.4916C12.461 12.2728 12.5839 11.9761 12.5839 11.6667V7.58332M11.7089 1.45832C11.941 1.22626 12.2557 1.09589 12.5839 1.09589C12.9121 1.09589 13.2269 1.22626 13.4589 1.45832C13.691 1.69039 13.8214 2.00513 13.8214 2.33332C13.8214 2.66151 13.691 2.97626 13.4589 3.20832L7.91726 8.74999L5.58392 9.33332L6.16726 6.99999L11.7089 1.45832Z" stroke="#1E1E1E" stroke-width="1.6" stroke-linecap="round" stroke-linejoin="round"/>
</g>
<defs>
<clipPath id="clip0_179_40047">
<rect width="14" height="14" fill="white" transform="translate(0.917236)"/>
</clipPath>
</defs>
</svg>
